<?xml version="1.0" encoding="UTF-8"?>
<svg id="Calque_1" xmlns="http://www.w3.org/2000/svg" version="1.1" viewBox="0 0 300 300">
  <!-- Generator: Adobe Illustrator 29.4.0, SVG Export Plug-In . SVG Version: 2.1.0 Build 152)  -->
  <defs>
    <style>
      .st0 {
        fill: #00a6f4;
      }

      .st1 {
        fill: none;
      }

      .st2 {
        fill: #052f4a;
      }
    </style>
  </defs>
  <rect class="st1" width="300" height="300"/>
  <g>
    <path class="st2" d="M116.9,208.1c-4.9,0-9.7-2.8-11.9-7.5l-37.1-78.8c-3.1-6.6-.3-14.4,6.3-17.5,6.6-3.1,14.4-.3,17.5,6.3l37.1,78.8c3.1,6.6.3,14.4-6.3,17.5-1.8.9-3.7,1.3-5.6,1.3Z"/>
    <path class="st2" d="M160.5,208.1c-4.9,0-9.7-2.8-11.9-7.5l-37.1-78.8c-3.1-6.6-.3-14.4,6.3-17.5,6.6-3.1,14.4-.3,17.5,6.3l37.1,78.8c3.1,6.6.3,14.4-6.3,17.5-1.8.9-3.7,1.3-5.6,1.3Z"/>
    <path class="st0" d="M187,163.9c-.5,0-.9,0-1.4,0-3.1-.4-5.9-2.3-7.3-5.1l-20.1-37.9c-2.6-4.8-.7-10.8,4.1-13.3,4.8-2.6,10.8-.7,13.3,4.1l13.7,25.9,27-28.1c3.8-3.9,10-4,13.9-.3,3.9,3.8,4,10,.3,13.9l-36.5,37.9c-1.9,1.9-4.4,3-7.1,3Z"/>
  </g>
</svg>