<svg version="1.2"
  xmlns="http://www.w3.org/2000/svg" viewBox="0 0 420 90" width="420" height="90">
  <title>lettering_dark</title>
  <style>
		.s0 { fill: #052f4a }
  </style>
  <g id="logo">
    <g>
      <path class="s0" d="m56 5.7c2.4 0 4.5 1.8 5.1 3.8l16.5 52.7 14.7-50.7c0.6-3 2.7-5.5 5.2-5.5 2.5 0 5.4 3 5.4 6.5 0 3.5 0 1.2-0.3 1.9l-19.5 66.4c-0.6 2.2-2.8 3.7-5.1 3.7-2.3 0-4.5-1.5-5.2-3.6l-17-48.8-18 50.4c-1.1 1.1-2.8 1.9-5.1 1.9-2.3 0-4.6-1.6-5.2-3.7l-18.8-65.7c-0.2-0.6-0.2-1.3-0.2-1.9 0-3.5 2.3-6.5 5.4-6.5 3.1 0 4.7 2.6 5.2 5.7l14.2 50.2 17.7-53.2c0.6-2 2.9-3.6 5.1-3.6z"/>
      <path class="s0" d="m159.3 51.2c0 1 0 2-0.2 3.1-0.3 2.6-2.7 4.7-5.4 4.7h-37.6c1.8 7.8 8.9 14.9 17.6 14.9 8.7 0 11.3-3.5 14-7.5 0.9-1.3 2.9-2.4 4.5-2.4 3 0 5.4 2.5 5.4 5.4 0 2.9-0.4 2.3-1 3.1-4.5 6.5-12.5 12.1-22.7 12.1-16.5 0-29-14.1-29-30.3 0-16.2 12.4-29.6 28.1-29.6 15.7 0 26.4 11.8 26.4 26.4zm-26.4-15.7c-7.8 0-14.3 5.9-16.4 12.8h31.7c-1.4-7.1-7.6-12.8-15.3-12.8z"/>
      <path class="s0" d="m220.2 51.2c0 1 0 2-0.2 3.1-0.3 2.6-2.7 4.7-5.4 4.7h-37.6c1.8 7.8 8.9 14.9 17.5 14.9 8.6 0 11.3-3.5 14-7.5 0.9-1.3 2.9-2.4 4.5-2.4 3 0 5.4 2.5 5.4 5.4 0 2.9-0.4 2.3-1 3.1-4.5 6.5-12.5 12.1-22.7 12.1-16.5 0-29-14.1-29-30.3 0-16.2 12.4-29.6 28.1-29.6 15.7 0 26.4 11.8 26.4 26.4zm-26.4-15.7c-7.8 0-14.3 5.9-16.4 12.8h31.7c-1.4-7.1-7.6-12.8-15.3-12.8z"/>
      <path class="s0" d="m233.8 5.1c3 0 5.4 2.4 5.4 5.4v38.5l21.8-22.7c0.9-1 2.5-1.7 3.9-1.7 3 0 5.4 2.4 5.4 5.4 0 3-0.7 3-1.6 3.8l-17.4 18.1 18.4 24.1c0.6 0.8 1.1 2.3 1.1 3.3 0 3-2.4 5.4-5.4 5.4-3 0-3.4-1-4.3-2.2l-17.3-22.8-4.6 4.7v14.8c0 3-2.4 5.4-5.4 5.4-3 0-5.4-2.4-5.4-5.4v-68.8c0-3 2.4-5.4 5.4-5.4z"/>
      <path class="s0" d="m277.6 79.1l-0.1-67.5c0-1.9 1.9-5.2 5.3-5.2h17c15.7-0.1 28.3 7.4 28.3 23.3 0 15.9-13 25.1-30.6 25.6l-9.2 0.2v23.6c0 2.9-2.4 5.1-5.4 5.1-3 0-5.4-2.4-5.4-5.2zm21.9-62h-11.1v27.6l9-0.2c12.7-0.3 20-3.4 20-14.7 0-11.3-6.7-12.7-17.9-12.7z"/>
      <path class="s0" d="m378 34.8l0.6-5.2c0-3 1.8-5.4 4.8-5.4 3 0 5.4 2.4 5.4 5.4 0 0.1-0.1 50-0.1 50 0 3-2.4 5.4-5.4 5.4-3 0-4.8-2.4-4.8-5.4l-0.6-4.3c-3.8 6.4-11.8 9.5-19 9.5-16.3 0-29.4-14-29.4-30.1 0-16.1 12.8-30.4 29.5-30.4 16.7 0 16.1 5.5 19 10.5zm-19.1 0.3c-10.6 0-18.7 9.1-18.7 19.4 0 10.3 8.4 19.5 18.8 19.5 10.4 0 18.6-9 18.6-19.4 0-10.4-8-19.5-18.7-19.5z"/>
      <path class="s0" d="m410 10.4v69.3c0 2.9-2.9 4.8-5.1 4.8-3.1 0-5.7-2.2-5.7-5.4v-68.7c0-2.7 2.2-5.4 5.1-5.4 2.9 0 5.7 2.7 5.7 5.4z"/>
    </g>
  </g>
</svg>