<?xml version="1.0" encoding="UTF-8"?>
<svg id="Calque_1" xmlns="http://www.w3.org/2000/svg" version="1.1" viewBox="0 0 565 90">
  <!-- Generator: Adobe Illustrator 29.4.0, SVG Export Plug-In . SVG Version: 2.1.0 Build 152)  -->
  <defs>
    <style>
      .st0 {
        fill: #00a6f4;
      }

      .st1 {
        fill: #052f4a;
      }
    </style>
  </defs>
  <g id="logo">
    <g>
      <path class="st1" d="M201,5.7c2.4,0,4.5,1.8,5.1,3.8l16.5,52.7,14.7-50.7c.6-3,2.7-5.5,5.2-5.5s5.4,3,5.4,6.5,0,1.2-.3,1.9l-19.5,66.4c-.6,2.2-2.8,3.7-5.1,3.7s-4.5-1.5-5.2-3.6l-17-48.8-18,50.4c-1.1,1.1-2.8,1.9-5.1,1.9s-4.6-1.6-5.2-3.7l-18.8-65.7c-.2-.6-.2-1.3-.2-1.9,0-3.5,2.3-6.5,5.4-6.5s4.7,2.6,5.2,5.7l14.2,50.2,17.7-53.2c.6-2,2.9-3.6,5.1-3.6Z"/>
      <path class="st1" d="M304.3,51.2c0,1,0,2-.2,3.1-.3,2.6-2.7,4.7-5.4,4.7h-37.6c1.8,7.8,8.9,14.9,17.6,14.9s11.3-3.5,14-7.5c.9-1.3,2.9-2.4,4.5-2.4,3,0,5.4,2.5,5.4,5.4s-.4,2.3-1,3.1c-4.5,6.5-12.5,12.1-22.7,12.1-16.5,0-29-14.1-29-30.3s12.4-29.6,28.1-29.6,26.4,11.8,26.4,26.4ZM277.9,35.5c-7.8,0-14.3,5.9-16.4,12.8h31.7c-1.4-7.1-7.6-12.8-15.3-12.8Z"/>
      <path class="st1" d="M365.2,51.2c0,1,0,2-.2,3.1-.3,2.6-2.7,4.7-5.4,4.7h-37.6c1.8,7.8,8.9,14.9,17.5,14.9s11.3-3.5,14-7.5c.9-1.3,2.9-2.4,4.5-2.4,3,0,5.4,2.5,5.4,5.4s-.4,2.3-1,3.1c-4.5,6.5-12.5,12.1-22.7,12.1-16.5,0-29-14.1-29-30.3s12.4-29.6,28.1-29.6,26.4,11.8,26.4,26.4ZM338.8,35.5c-7.8,0-14.3,5.9-16.4,12.8h31.7c-1.4-7.1-7.6-12.8-15.3-12.8Z"/>
      <path class="st1" d="M378.8,5.1c3,0,5.4,2.4,5.4,5.4v38.5l21.8-22.7c.9-1,2.5-1.7,3.9-1.7,3,0,5.4,2.4,5.4,5.4s-.7,3-1.6,3.8l-17.4,18.1,18.4,24.1c.6.8,1.1,2.3,1.1,3.3,0,3-2.4,5.4-5.4,5.4s-3.4-1-4.3-2.2l-17.3-22.8-4.6,4.7v14.8c0,3-2.4,5.4-5.4,5.4s-5.4-2.4-5.4-5.4V10.4c0-3,2.4-5.4,5.4-5.4Z"/>
      <path class="st1" d="M422.6,79.1h0c0,0-.1-67.5-.1-67.5,0-1.9,1.9-5.2,5.3-5.2h17c15.7-.1,28.3,7.4,28.3,23.3s-13,25.1-30.6,25.6l-9.2.2v23.6c0,0,0,0,0,0,0,2.9-2.4,5.1-5.4,5.1s-5.4-2.4-5.4-5.2ZM444.5,17.1h-11.1v27.6c0,0,9-.2,9-.2,12.7-.3,20-3.4,20-14.7s-6.7-12.7-17.9-12.7Z"/>
      <path class="st1" d="M523,34.8l.6-5.2c0-3,1.8-5.4,4.8-5.4s5.4,2.4,5.4,5.4h0c0,.1-.1,50-.1,50,0,3-2.4,5.4-5.4,5.4s-4.8-2.4-4.8-5.4l-.6-4.3c-3.8,6.4-11.8,9.5-19,9.5-16.3,0-29.4-14-29.4-30.1s12.8-30.4,29.5-30.4,16.1,5.5,19,10.5ZM503.9,35.1c-10.6,0-18.7,9.1-18.7,19.4s8.4,19.5,18.8,19.5,18.6-9,18.6-19.4-8-19.5-18.7-19.5Z"/>
      <path class="st1" d="M555,10.4v69.3c0,2.9-2.9,4.8-5.1,4.8-3.1,0-5.7-2.2-5.7-5.4V10.4c0-2.7,2.2-5.4,5.1-5.4s5.7,2.7,5.7,5.4Z"/>
    </g>
    <g>
      <path class="st1" d="M38.8,78.5c-2.8,0-5.5-1.6-6.8-4.3L10.7,29.1c-1.8-3.8-.2-8.2,3.6-10,3.8-1.8,8.2-.2,10,3.6l21.2,45.1c1.8,3.8.2,8.2-3.6,10-1,.5-2.1.7-3.2.7Z"/>
      <path class="st1" d="M63.7,78.5c-2.8,0-5.5-1.6-6.8-4.3l-21.2-45.1c-1.8-3.8-.2-8.2,3.6-10,3.8-1.8,8.2-.2,10,3.6l21.2,45.1c1.8,3.8.2,8.2-3.6,10-1,.5-2.1.7-3.2.7Z"/>
      <path class="st0" d="M78.8,53.2c-.3,0-.5,0-.8,0-1.8-.3-3.3-1.3-4.2-2.9l-11.5-21.7c-1.5-2.7-.4-6.2,2.3-7.6,2.8-1.5,6.2-.4,7.6,2.3l7.9,14.8,15.5-16.1c2.2-2.2,5.7-2.3,8-.2,2.2,2.2,2.3,5.7.2,8l-20.9,21.7c-1.1,1.1-2.5,1.7-4.1,1.7Z"/>
    </g>
  </g>
</svg>